<?xml version="1.0" encoding="UTF-8"?>
<svg id="Layer_1" data-name="Layer 1" xmlns="http://www.w3.org/2000/svg" viewBox="0 0 512 512">
  <defs>
    <style>
      .cls-1 {
        fill: #bc9562;
      }

      .cls-2 {
        fill: #21201e;
      }

      .cls-3 {
        fill: #f7e7a5;
      }

      .cls-4 {
        fill: #e0af69;
      }

      .cls-5 {
        fill: #e8bc75;
      }

      .cls-6 {
        fill: #caa370;
      }

      .cls-7 {
        fill: #e7bb74;
      }

      .cls-8 {
        fill: #c9a370;
      }

      .cls-9 {
        fill: #72542f;
      }

      .cls-10 {
        fill: #dbb37b;
      }

      .cls-11 {
        fill: #c7995d;
      }

      .cls-12 {
        fill: #9d7241;
      }

      .cls-13 {
        fill: #e2c89f;
      }

      .cls-14 {
        fill: #704e2c;
      }

      .cls-15 {
        fill: #734f2c;
      }

      .cls-16 {
        fill: #0d0e13;
      }

      .cls-17 {
        fill: #05060d;
      }

      .cls-18 {
        fill: #d29751;
      }

      .cls-19 {
        fill: #f7e1a1;
      }

      .cls-20 {
        fill: #a88758;
      }

      .cls-21 {
        fill: #bb996c;
      }

      .cls-22 {
        fill: #856640;
      }

      .cls-23 {
        fill: #c09865;
      }

      .cls-24 {
        fill: #020308;
      }

      .cls-25 {
        fill: #73502c;
      }

      .cls-26 {
        fill: #fdfcfc;
      }

      .cls-27 {
        fill: #92693b;
      }

      .cls-28 {
        fill: #704e2b;
      }

      .cls-29 {
        fill: #90673a;
      }

      .cls-30 {
        fill: #a68455;
      }

      .cls-31 {
        fill: #91673a;
      }

      .cls-32 {
        fill: #68492a;
      }

      .cls-33 {
        fill: #eaad61;
      }

      .cls-34 {
        fill: #a77a45;
      }

      .cls-35 {
        fill: #8b6338;
      }

      .cls-36 {
        fill: #1f1f1e;
      }

      .cls-37 {
        fill: #f8eaab;
      }

      .cls-38 {
        fill: #e5b972;
      }

      .cls-39 {
        fill: #fafaf9;
      }

      .cls-40 {
        fill: #c8a06c;
      }

      .cls-41 {
        fill: #d4a462;
      }

      .cls-42 {
        fill: #6d4b2a;
      }

      .cls-43 {
        fill: #d59851;
      }

      .cls-44 {
        fill: #cda978;
      }

      .cls-45 {
        fill: #976d3f;
      }

      .cls-46 {
        fill: #ca914e;
      }

      .cls-47 {
        fill: #080910;
      }

      .cls-48 {
        fill: #724f2c;
      }

      .cls-49 {
        fill: #20201f;
      }

      .cls-50 {
        fill: #d0a466;
      }

      .cls-51 {
        fill: #020207;
      }

      .cls-52 {
        fill: #232220;
      }

      .cls-53 {
        fill: #8a6b43;
      }

      .cls-54 {
        fill: #0d0c12;
      }

      .cls-55 {
        fill: #fcfae3;
      }

      .cls-56 {
        fill: #e8bb74;
      }

      .cls-57 {
        fill: #7b5732;
      }

      .cls-58 {
        fill: #926b3e;
      }

      .cls-59 {
        fill: #926739;
      }

      .cls-60 {
        fill: #9e7243;
      }

      .cls-61 {
        fill: #976d3e;
      }

      .cls-62 {
        fill: #946b3d;
      }

      .cls-63 {
        fill: #8b6b44;
      }

      .cls-64 {
        fill: #74502c;
      }
    </style>
  </defs>
  <g id="Generative_Object" data-name="Generative Object">
    <path class="cls-2" d="M365.88,456.42c2.29,9.71-2.55,11.26-2.83,11.97,0,0,5.18,12.73.17,29.1-2.3,7.5-8.31,12.94-16.18,13.98-8.78,1.17-17.64.14-26.24-2.73-22.72-7.58-39.14-18.27-50.9-39.77-3.97-1.13-6.67-3.37-9.14-6.63-8.53-11.26-13.69-24.38-16.16-38.33-.98-5.54-2.22.29-6.54-13.09-4.62-14.31-2.65-36.33-3.72-38.67l-2.99-6.57c-3.46-7.59,3.3-49.69,7-60.37-9.26,3-18.15,4.67-27.62,5.37l-10.84.81-24.58.27c-10.34.11-13.05,13.86-48.78,8.18-5.27-.84-10.34-1.45-15.48-.93-15.19,1.53-18.23,13.27-23.93,10.9-3.27-1.36-1.82-6.69-.58-10.41-3.11-.14-8.85,3.68-11.44,1.55-3.12-2.57,1-7.69,3.27-10.47-1.29-1.06-4.99,1.12-6.33-1.88-.22-.5-.1-2.03.41-2.73,7.8-10.73,21.31-19.91,35.46-15.54l15.61,4.83c2.83.88,11.65,2.28,11.81.31s-11.44-.87-13.32-19.08c-.63-6.13-.21-12.13.29-18.52,1.71-21.97.3-43.23-3.47-64.98-8.72-50.34-28.8-108.43-65.17-145.74-11.95-4.65-18.57,7.14-21.6,5.5-3.91-2.12-1.54-10.62,2.21-13.51-4.13-.16-8.98,3.67-10.85.21-2.04-3.76,6.56-10.75,10.44-12.58-1.81-.98-4.98-.28-6.28-2.75-2.06-3.94,8.08-7.1,9.06-7.85,1.68-1.28,1.86-3.81,4.73-4.09,4.9-.48,9.98-.11,15.01,2.23.9-1.03,1.26-2.08,2.05-2.21,1.08-.18,2.81-.43,3.93.33,9.55,6.46,17.57,14.94,24.26,24.32,2.05,2.88,3.95,4.6,7.29,5.65l33.2,10.46c11.33,3.57,22.03,7.26,33.81,9.96,3.07-7.52,7.34-13.84,12.99-19.25-4.76-11.53-4.18-32.35,6.17-40.8,5.25-4.29,12.79-3.69,17.91.74,5.83,5.04,6.87,12.87,5.94,20.57,14.9-2.98,29.36-.93,42.48,6.52,8.73-11.11,21.56-19.95,35.74-17.86,5.77.85,9.94,5.04,11.26,10.85,2.58,11.31.2,23.14-5.69,33.34-.78,1.36-.23,2.06-.1,3.16.27,2.24.73,3.48,3.13,4.11,4.04,1.05,8.05,1.86,12.14,2.17,27.71,2.08,69.65-4.87,97.2-10.87,3.74-.81,6.34-2.43,8.14-5.61,3.13-5.54,9.03-16.92,15.47-17.95,1.73-.28,3.48,1.87,3.52,3.35l.13,5.55c5.38-4.23,11.15-6.86,17.97-7.61,3.09-.34,11.12.78,11.93,4.31,1.06,4.57-6.55,6.64-5.29,7.32,6.95.98,13.63,3.53,18.08,9.06,1.51,1.87,2.2,5.34-.11,6.13l-4.61,1.57c2.13,2.39,5.58,7.63,3.15,10.61-2.84,3.49-10.64-2.1-19.6-.6-9.85,1.65-18.31,13.12-22.69,21.64-26.57,51.71-27.96,106.1-18.22,162.84l6.09,35.45c1.51,8.8,1.68,17.24-.32,25.74-1.01,4.27-3.48,7.55-6.95,10.82l24.19,5.92c11.76,2.88,25.63,10.58,25.96,24.25.06,2.47-.95,4.24-2.39,5.58.23,1.98,4.7,11.52.31,12.4-2.65.53-5.78-.18-7.32-2.45-.31-.45-1.37.24-2.2.14-.05,2.61-.56,5.31-2.59,7.02-2.19,1.84-5.31.71-6.89-1.19-1.03-1.24-1.66-2.81-3.31-3.52-1.27,1.67-2.94,3.85-5.16,3.46s-4.2-2.55-5.65-4.44l-9.93-12.89c-5.51-7.16-14.47-5.31-25.87-9.62-17.58-6.64-17.13-19.47-45.45-32.85-10.49-4.95-21.05-8.89-32.53-12.61l9.33,18.01,26.26,54.57c2.47,5.13,3.55,11.21,1.25,16.26,4.09,6.76,7.83,13.26,10.98,20.5,2.13,4.91,2.76,10.36,0,15.43,4.05,7.6,8.05,15.42,10.13,24.25Z"/>
    <path class="cls-13" d="M298.99,265.84c-9.22,12.13-30.08,10.31-39.36,17.12l-1.29.94c-.3.22-1.21.29-1.33-.71-.17-1.41-1.75-.05-2.46,0-.59.04-1.35-1.97-2.05-1.03-1.13,1.53-1.58-.21-2.14-.37-13.99-4.03-22.7-15.6-28.89-20.02-4.46-5.39-8.58-10.85-11.99-16.95.29-.76-.3-1.21-.58-1.86.36.09.51-.14.64-.35.19-.29-.33-.71-.43-1.01-4.66-14.09-5.05-23.42-4.11-39.29l.59-10.12c.41-7,.94-14.23.09-21.14l-.47-3.88c-.09-.7-1.39-14.72-2.92-12.03-1.17-4.47-2.31-8.91-3.77-13.23.71-1.14,2.21,5.2,3.44,6.72.99-1.13.57-2.78,1.05-4.29,1.28-3.98,6.49-1.37,16.1-3.55,3.77-.85,2.55,7.39,3.05,8.72,2.66,7.17,3.93,14.98,7.18,21.26.37.72-.52,2.22,1.29,2.39-.23-1.01-.51-2.06-1.29-2.39-2.21-7.47-3.13-15.19-2.42-23.45.23-2.64-.28-5.32.99-7.66,3.26-6.01,18.38-3.12,22.4-9.17,1.71-2.57,3.57-4.85,7.44-3.62s7.62,3.91,10.6,7.36c8.22,9.5,14.4,19.9,20.16,30.92,6.14,11.73,11.53,23.38,14.71,36.28,3.07,12.45,4.68,24.57,3.98,37.12,1.46.37.49.53.23,1.25-1.96,8.1-2.96,18.79-8.46,26.01Z"/>
    <path class="cls-63" d="M147.57,254.98c-3.42,4.99-4.24,11.31-6.25,17.22-.3.88-.96,2.37.24,2.63-1.04,4.94-1.73,10.29-4.03,15.18-3.74-.32-4.86-3.08-6.3-4.97.18-.12.34-.44.19-.65,1.52-.56,2.33-1.88,2.45-3.65.17-2.59,2.3-5.07,1.97-7.35-.21-1.44.42-1.74,1.05-2.68.87-1.4,1.17-3.64,1.47-5.57.13-.82-1.39-1.98.44-2.43.76-.19.45-2.4.68-3.17,1.12-1.64.83-4.41,1.48-6.19,1.96-5.39,2.39-10.7,3.81-16.03,1.08.27,1.46-.62.39-1.21.02-2.33,1.37-5.1.88-7.23-.37-1.57.41-1.93.58-3.29l1.16-9.51c.3-.28,1.54-.39,1.61-1.04-.46,4.15-1.06-8.85-.99-6.67-.29-9.25-.43-18.55-2.03-27.77-.07-.41,1.09-1.09.7-1.6-.32-.42-1.06-.21-1.15-.66-3.55-16.28-8.97-33.45-18.89-48.35-6.86-10.3-15.38-18.23-25.11-25.42-1.15-.85-3.29.29-3.55-2.64-.05-.55-.97-1.18-1.3-1.53-1.07-1.12-2.26-3.9-3.01-5.41-3.75-7.64-8.23-14.94-12.63-22.25.73-.01.62-.37.29-.64-.45-.37-.6-.68-.97-.56l-11.59-15.97c9.68,2.6,16.73,8.96,23.64,15.54,13.48,12.83,30.84,29.61,48.31,34.31-2.54,1.08-4.52-.61-6.84.53,3.93,2.73,8.6,2.58,13.3,3.67,3.36.78,6.1,3.2,9.67,3.73,8.22,12.41,15.12,13.32,27.67,18.72,2.57,2.05,4.55,6.28,6.03,9.9,5.98,14.62,8.05,30.56,5.62,46.02-1.91,12.12-11.17,23.79-20.51,31.73-4,3.4-8.01,6.6-11.66,10.55-6.63,7.17-11.93,14.6-15.72,23.45-.13.3-1.2-.13-1.11.33.04.22.18.69.02.92Z"/>
    <path class="cls-27" d="M371.26,334.43c.4-1.16-1.22-2.06-.95-2.99,2.05-7.19.85-17.54-1.41-25.3-3.7-12.75-9.44-24.25-17.37-34.31-3.51-4.45-7.92-8.35-12.52-11.73-9.56-7.03-21.4-6.21-30.1,1.01,12.45-20.19,8.39-57.16.11-78.04-2.74-6.9-5.1-13.38-6.99-20.7-1.66-6.4-3.75-12.48-3.47-19.24.57-13.46,9.75-17.45,9.42-16.67.09-.21.17-.46.14-.78,1.98,1.25,1.25,4.35,1.38,6.6.42,7,2.06,13.48,5.2,19.88l17.07,34.72c7.97,16.21,15.83,32.12,24.5,47.46-4.89-3.33-9.17-6.24-14.99-6.67,29.68,18.07,45.16,47.67,47.65,81.29l.73,9.91c1.04,14.09,16.97,14.53,28.35,16.37,9.05,1.46,33.79,6.21,33.49,19.23-7.76-7.02-16.45-12.77-26.89-14.7,5.64,2.81,10.93,5.23,15.36,9.77,5.95,6.1,10.59,13.09,12.82,21.79-3.56-1.33-5.32-4.3-7.38-7.04-7.59-10.13-14.22-16.78-26.94-18.7,8.11,6.13,14.43,8.82,19.76,17.72,2.38,3.98,4.43,8.63,1.65,13.8-1.88-1.4-2.54-3.43-3.42-5.32-1.99-4.29-4.04-8.66-7.64-11.97-4.2-3.88-9.14-6.79-15.25-7.92,8.66,3.98,14.59,13.21,14.31,23.38-1.02-.36-1.74-1.16-2.4-2.06-5.1-6.83-9.84-13.93-16.56-19.34-2.53-2.03-6.49-2.23-9.52-2.88-11.07-2.38-21.55-7.57-28.16-16.56Z"/>
    <path class="cls-30" d="M401.96,142.52c-1.54-2.64-4.59,18.81-4.71,19.83l-1.01,8.63c-.22,1.9-.63,4.1-.68,6.11-.24,9.24-.69,36.78.77,44.34.48,2.5-.12,4.83.55,7.34.44,1.66.58,11.91,2.08,9.37.08.15,0,.43,0,.6-1.43,1.46-.37,3.95-.07,5.97.48,3.22,3.69,22.99,3.68,23.17-.01.38.69.4,1.2.33l3.7,21.64.78,7.06c.49,4.4.66,13.13-.27,17.01-.85.2-.56-.41-.84-1.25-.6.73-1.1,1.38-2.03,1.77-4.43-6.54-7.21-13.31-10.23-20.64.8,4.97,1.42,8.8.48,12.9-1.49-21.03-8.37-42.52-22.99-58.83-5.48-6.11-8.3-12.75-11.96-19.27,1.54.52,1.9,2.47,2.92,4.09.29-2.15-1.75-3.71-2.28-5.94-.99-4.15-1.92-7.95-3.16-11.92-6.16-19.82-8.54-36.23-3.29-57.18.07-.27,1.27-.07,1.1-.62-.07-.24,0-.49-.62-.91,7.28-18.6,18.39-29.07,34.77-40.62,5.21-3.68,10.01-7.6,16.21-9.03l5.53-1.27c.82-.19,1.28-.21,1.61-.46.68-.52.08-1.95.37-2.39l4.03-6.14c.25.86-.14,1.47-.63,2.45-7.04,14.13-11.51,28.84-15.01,43.86Z"/>
    <path class="cls-8" d="M407.98,75.16c-11.92,3.31-32.51,12.31-42.35,20.68l-14.75,12.55c-4.89,4.16-10.93,5.83-16.27,8.41-.5-.39-1.01-.12-1.64.14-8.41,3.5-17.26,6.04-26.64,6.93.33-.03-7.27-1.89-6.01.6-2.03.46,8.35,1.53,7.82,1.2.03.32-.05.57-.14.78.33-.79-8.86,3.21-9.42,16.67-.28,6.76,1.81,12.83,3.47,19.24,1.89,7.32,4.26,13.8,6.99,20.7,8.28,20.88,12.34,57.85-.11,78.04-1.05.87-2.19,1.11-3.09,2.55-1.48,2.37-7.83,7.23-7.25,4.71.23-.98,1.7-1.13,1.68-1.66-.02-.49-1.27-.35-1.27-.87,5.49-7.22,6.5-17.91,8.46-26.01.27-.72,1.23-.88-.23-1.25.7-12.55-.91-24.67-3.98-37.12-3.18-12.9-8.58-24.55-14.71-36.28-5.77-11.02-11.94-21.41-20.16-30.92-2.99-3.45-6.61-6.08-10.6-7.36s-5.73,1.04-7.44,3.62c-4.02,6.05-19.14,3.16-22.4,9.17-1.27,2.34-.77,5.02-.99,7.66-.71,8.26.22,15.98,2.42,23.45-3.25-6.28-4.52-14.09-7.18-21.26-.5-1.34.73-9.58-3.05-8.72-9.61,2.18-14.83-.43-16.1,3.55-.49,1.52-.06,3.16-1.05,4.29-1.23-1.52-2.74-7.86-3.44-6.72l-4.22-8.34c2.05-.53,2.66,1.19,4.74,1.14-.29-1.51-1.77-1.62-2.25-3.12,10.39.04,13.28-3.68,19.94-4.13,1.89,1.6,4.8.15,7.18.12,8.64-.12,16.43-2.34,23.7-6.59.67-.39,1.6-.6,1.6-1.45,6.32-4.53,12.75-9.28,17.42-15.59.02.46-.18,1.15.62,1.26,10.67,1.51,21.11,2.62,31.73,1.5,19.72-2.08,39.54-9.63,57.76-17.19,7.8-3.24,15.47-6.23,23.56-8.88,5.82-1.9,11.67-2.08,17.43-3.54l7.89-2c.6-.15.79-.77,1.45-.6.38.1.99-.09.91.63Z"/>
    <path class="cls-22" d="M424.33,84.79c-2.23,2.94-3.59,6.79-5.65,10.12-.17.28-1.09.02-1.09.55v.76s-4.02,6.14-4.02,6.14c-.29.44.31,1.87-.37,2.39-.33.25-.79.28-1.61.46l-5.53,1.27c-6.2,1.42-11,5.35-16.21,9.03-16.38,11.55-27.49,22.02-34.77,40.62.63.43.55.67.62.91.17.55-1.03.35-1.1.62-5.25,20.94-2.87,37.36,3.29,57.18,1.23,3.97,2.17,7.76,3.16,11.92.53,2.24,2.57,3.79,2.28,5.94-1.03-1.63-1.38-3.57-2.92-4.09-7.98-14.2-15.7-28.72-22.44-43.83.55-.84.04-1.39-.86-1.46l-9.92-21.39c-1.36-2.93-14.22-30.71-11.24-31.8,7.88-2.88,15.34-5.3,22.68-8.89,24.32-11.93,31.3-24.94,55.38-36.23,8.59-4.03,23.07-7.58,33.3-5.29-1.2,1.79-1.87,3.63-2.96,5.06Z"/>
    <path class="cls-45" d="M160.78,105.25c-.09,1.16-.16,2.28-1.24,2.93-13.5-6.26-20.74-6.93-34.28-16.2-9.08-6.22-16.91-13.01-25.15-20.39-9.56-8.56-22.53-19.96-35.07-20.66-.69-.04-1.26-.96-1.42-1.51-.09-.31-.17-.81.43-1.15,1.23-.48,3.09-.56,3.23-1.96-2.48-1.45-5.51-1.88-7.04-4.23-.87-1.35.33-2.94-.37-4.55l-17.53,5.93c-3.32,1.12-5.48,3.81-9.14,4.82,1.79-5.45,6.36-8.77,11.11-11.28,4-2.12,8.48-2.51,12.71-5.52-6.13-2.42-19.6,2.09-25.45,4.61-.77.33-1.9.84-2.71-.32,4.06-4.52,9.63-8.23,15.84-9.23,3.53-.57,6.81-.08,10.63-1-5.25-5.89-12.92-3.21-16.87-3.88-1.51-.26-3.55,1.58-5.14-.2,5.77-5.91,14.57-6.1,21.71-2.15s12.31,9.86,15.42,17.4c1.42,3.45.95,7.09,1.4,10.54l4.47-.67c1.42-5.86-.6-11.28-4.48-15.89-3.27-3.88-6-8.16-9.53-11.19-.84-.72-.93-1.77-1.13-3.56,7.14,2.94,17.93,16.67,21.97,23.73,1.18,2.06,1.44,5.4,3.8,6.33,4.48,1.77,9.09,2.19,13.79,3.75l44.86,14.85,12.34,3.61c-.86,9.02,3.67,10.6.87,21.39-8.34-2.01-16.28-3.76-24.55-4.07,2.6,1.63,5.27,1.35,7.76,2.36,5.18,2.1,10.48,2.63,16.61,3.57-1.11,5.31-.1,9.62,2.16,13.8Z"/>
    <path class="cls-62" d="M205.78,238.75c-1,1.4-3.08,4.21-5.21,3.12-.87-.44-.6-1.53-1.64-1.42-.48.05-1.09-.89-1.01.55-4.93-3.56-12.19-1.44-16.32,2.24-3.83,3.41-6.39,6.91-9.41,11.14-8.41,11.78-13.82,25.13-14.98,39.06-.26,3.09-.86,5.92-.12,8.98.64,2.65,1.19,5.47,4.17,7.1-2.28,3.07-6.48,2.76-5.88,3.97-5.08,2.25-10.85,2.81-16.87,2.2l-20.39-2.04c-9.81-.98-18.92,2.23-25.93,9.16-.88.87-1.91,1.25-2.61,1.62-.04-8.19,10.69-14.76,17.89-16.22-5.31-1.2-11.07-.65-15.62,2.31l-6.66,4.34c-1.9,1.24-3.51,2.86-6.7,2.15,5.59-11.1,14-13.6,25.23-16.7-1.48-1.59-3.35-.48-4.89-.62-8.23-.75-14.1,5.19-21.05,5.78,6.21-6.77,8.05-7.82,15.88-10.61,11.1-3.95,22.81,5.07,36.99,6.41,12.81,1.21,15.27-11.19,16.52-20.63,2.65-20.07,11.28-39.49,27.61-52.61,10.8-8.69,19.94-18.01,25.42-30.1-1.05,17.99.03,25.85,5.6,40.83Z"/>
    <path class="cls-15" d="M311.14,340.36c-.25,1.83,2.2,2.26,2.76,3.98-1.05.24-1.39-1.35-2.71-.71l11.41,12.36c1.68,1.82,3.49,3.05,4.72,5.48l8.43,16.77c2.32,4.61,4.12,8.99,4.55,13.56-2.95-3.56-6.19-5.47-9.04-8.3-3.2-3.18-6.86-5.78-11.06-7.57,10.56,8.07,24.49,30.93,29.25,42.46-2.42-1.1,1.55,5.15.91,6.29l-6-5.21c-3.61-3.14-5.11-2.62-7.64-6.19-.9,1.83-3.61,2.32-4.25,4.65-.19.71-.56,1.75-1.36,1.97-.39.1-.29-.77-1.48-.97-.03,1.44-6.53,8.62-7.65,6.31-1.23,1.58-2.2,2.78-3.68,3.96.84-.06,1.39.4,1.45.92.03.29.11.34-.26,1.17,0,.55.86.4,1.26.8.19.19-.56.4-.92.51-.29.09-.74.09-1.13-1.36.64.43-.38.33-.47.5s.38.68-.17.68c-.39,0-.39-.58-.37-1.03l.05-1.09c.01-.26-.81-.43-1.2-.74-.53-.41.19-.94-.02-1.08.27.17-2.03-2.38-2-3.01.05-.98,1.14-1.07,2.1-1.71.77-.51.54-2.94,1.97-2.52l1.26.37c-.26-.08,3.84-2.96,1.74-5.6-.81,1-1.91,1.59-2.52,2.67.16,1.37-.65,1.42-.95-.12-.38.3-.77.77-1.13.77-.51,0-.41-.95-1.17-.86-1.02,1.26-1.79.22-.34-.9-.92-.85-.8-2.57.71-3.11.45-.12.59,1.25,1.26,1.17,1.23-.14,3.82-1.39,3.26-2.78-.1-.24-3.87-2.47-5.93.39-.69.96-.93.75-1.61.37-.74-.41-.66-.64-.64-1.32.02-.49-1.31-.89-1.69-.78-.28.09-.42.56-.9.99-1,.88-2.36.99-3.04.29-.45-.46-1.26-1.84-.41-2.41.38-.24,1.24.73,1.91.39,2.19-1.12,2.42-5.71,2.51-5.8-.77.86,4.91-3.13,3.18-2.63.85-.13,1.62.1,1.89-.68.19-.55,1.06-1.74-.42-1.56-1.09.14-.71,2.02-1.47,2.24-5.03.76-.82,3.8-3.81,1.93-.25-.16-.68-.33-.71-.99-.01-.28.53-.41.91-.9.34-1.59,6.62-3.78,6.01-6.06-1.72,2.37-4.66,1.25-4.84,1.45-1.79,1.93-1.24-1.42-2.65.32-.23.28-.33.42-.42,1.19-.02.2-.93,0-1.18.21-.15.12-.1.28-.24.57-.08.18,1.11.18.93.63.39-.97-3.55,6.87-4.33,6.25-.82-1.31-2.61-3.35-1.73-4.09,3.5-2.95,6.42-5.74,9.43-8.86-3.34-3.17-7.63,3.85-9.27,6.58-.53.88-2.14.11-2.53-.61-.34-.62-.49-1.37-1.01-2.95-2.24,1.05-5.49,7.03-7.93,5.46,2.99-1.67,2.44-3.54,3-5.4.33-1.09.17-3.83,1.54-3.91,1.89-.11,1.9,2,2.69,3.53,1.76-4.82,4.37-3.57,7-9.41l-3.8-7.36c-.23-.45-.19-1.37-1.15-1.29-.46.04-.64.65-.88,1.58-1.01-.33-1.84-.79-2.61-.93l2.5-3.5c-.84-.99-1.17.09-1.42.04-.52-.1,0-.94,0-1.15-.11-1.98-1.88-3.42-3.03-5.08-1.6-2.32-2.64-5.53-3.98-8.26,1.65-.34,2.05-2.25,3.38-2.66,1.07-.33,2.85,2.36,3.83,1.47.51-.46,1,.04,1.83.07.31.01.26.62.64,1.35.98,1.16,1.76-.26,2.14-.95,2-3.61-4.19-12.09-7.09-16.75l-4.15-6.65c.7-.67,1.53-1.29,2.61-1.2,2.05.17,2.84-2.21,4.38-3.08,2.31-1.3,5.51-2.33,5.81-3.42l.67-2.48c.52-.53,1.01.04.4.93,4.27,3.63,7.95,8.73,11.19,13.69-.9,2.21-3.91-3.37-5.59-2.91.38.85.58,1.25.54,1.6Z"/>
    <path class="cls-1" d="M351.53,271.83c7.93,10.06,13.66,21.56,17.37,34.31,2.26,7.77,3.45,18.12,1.41,25.3-.26.93,1.36,1.83.95,2.99-11.88-12.59-25.38-18.42-40.27-25.76,1.07-.68-4.15-1.95-4.52-3.14,4.51-5.24,10.61-9.5,13.89-14.4,4.15-6.19-1.28,1.41,4.5-4.36-.25-.62-1.17-1.16-.89-1.88.18-.45.49-.94,1.08-1.35.78-.54-.55-1.26.05-1.43.51-.14,1-.2,1.69-.62,1.06-1.14.07-1.96-1.02-.68-.66.4-.27-.94-.6-1.1-.23-.11-.64,1.02-1.04.13l-1.02-2.3c-.23-.52,1.57-.89,1.53-1.41-.15-2.13.97-3.21,2.63-4.38-.08-1.15-1.79-1.57-2.79-1.48.52-.77,1.05-2.05,1.86-2.03,2.75.07,2.45,4.6,5.18,3.6Z"/>
    <path class="cls-42" d="M287.69,298.89c2.96,1.87,7.38,2.71,9.92,5.63,5.87,6.76,9.26,14.68,13.67,22.58-4.91-3.69-8.84-8.26-14.41-9.94-.69-.21-1.77-.24-2.15.7-1.18,2.9-8.13,4.7-8.19,6.04-.01.3,1.82.23,1.32,1.01-.56.87-2.14.69-2.26,1.83-.07.68-.63,2.11.72,2.04,1.06-.05,3.05-1.05,3.57-2.08.63-1.24.01-3.02,1.58-3.57,1.76-.61,3-2.59,5.42-2.37.53.05,1.06-1.44,1.69-.51.26.39.36.93.73,1.31l5.3,5.48c-1.17.71-2.11,2.28-3.62,1.24-.25-.17-.01-1.19-.66-.81-.23.14-.41.29-.29.54.07.14.39.6.33.97l-5.3,2.05c-5.78,2.23-1.62,4.26-5.04,3.98-.93-.08-1.36-.93-1.91-1.62-3.61-4.55-7.21-8.65-11.3-12.26,1.28-2-.03-3.12.85-4.89.7,1,1.1.57,1.86-.15.5-.48.13-.88-.55-2.1-.26.11-.48.48-.79.8-.18.18-.59.16-.51-.28.75-1.35,2.59-1.88,2.82-3.65.06-.45-.88-.93-.82-1.79-1.61,1.95-4.34,3.02-5.24,5.49-.33.9-.91.18-1.09-.36-.28-.83,5.42-4.47,3.99-5.64-.95,1.39-1.78,1.55-1.64,0,.68-1.46,2.44-1.89,2.41-3.68-1.02.56-1.83,1.35-2.82,1.25-.35-1.97,1.82-2.2,2.28-3.46,2.59,2.02,4.23-3.8,5.74-4.32,2.35-.81,4.28,2.56,4.4.55Z"/>
    <path class="cls-44" d="M245.6,116.22c-.13-.11-.83-.43-.87-.17-.09.56-.72.21-1.01.38-11.86,6.71-23.58,3.56-31.85,6.43-2.81.97-5.39,2.9-8.63,3.18-14.1,1.22-29.58-.81-38.76-11.7-1.09-1.29-2.25-2.48-2.19-4.12,5.73,4.97,8.4,8.04,14.92,10.51s13.83,2.67,20.93.73c.71-.2.62-.62.55-1.19,4.69-1.14,9.73-5,12.79-8.6,7.57,1.97,15.66,4.19,23.88,2.25,9.03-2.14,16.17-8.38,21.71-15.37,3.97-5.01,7.92-9.48,12.46-13.52.15,1.75.31,3.8-.52,5.82-4.61,11.16-13.28,19.91-23.41,25.37Z"/>
    <path class="cls-35" d="M254.61,289.79c-.22,1.12-1.48.37-2.45.63-7.54,2.01-16.67,12.73-41.44,14.09l-18.05.99c-.02-3.08.88,1.17,5.58-3.47-.37-.68-1.15-1.21-.47-1.34.33-.06.74.24.95-.51-1.4,0-2.11-.51-2.86-1.4l-.4,2.59c-.08.5-1.15.72-1.62.21.78-.55,1.35-1.39,1.26-1.93-.08-.46-.26-1.03-.96-1.33-.32-.14-.82.82-1.61.62.24-7.01-13.84,3.43-14.9.67,12.13-4.39,24.76-7.9,38.4-9.19,7.02-.66,13.54-1.43,20.55-1.19,6.25.21,12.28-.38,18.03.56Z"/>
    <path class="cls-15" d="M355.01,446.13c3.68,4.89,4.44,11.17,4.54,17.41-5-7.46-9.37-10.71-16.08-15.11-.66-.57-1.2-.56-1.53-.14,1.85,3.92-.11-.21,2.63,3.63.35.5-.92.72-1.01,1.02-1.18,4.01-7.1,2.76-4.7,5.33-1.96.27-2.74,2.11-3.96,3.04-1.25-2.51-1.41-.56-3.73,1.5.72.4,1.43-.14,2.14,1.16-4.94,4.98-5.11,3.07-6.87,8.41-.67,1.03-2.58,2.12-3.3,2.94-1.27-.68-.9-1.78-.71-2.41.25-.84,1.23-1.28,1.6-1.85,2.41-3.7,4.63-3.46,4.91-5.27s-4.45-6.99-5.6-9.54c-.03-.31.85-.93.15-.97-.45-.03-.86,0-1.31-.99l4.21-.57c1.66-.23,2.2-2.67,1.85-4.56,1.8-.74,3.11-.16,4.5-1.19.35,1.23-.67,1.31-1,2.2-.23.64,1.36,1.06,1.98,1.25.65.19,2.08-.44,1.88-1.49-.14-.76-.81-1.16-.11-1.46,4.24-1.83.9-1.63,4.77-2.47-.35-1.15-1.21-1.19-1.64-1.47-.88-.57-1.32.17-1.94.47-.85-.91-.57-2-.25-2.66.43-.89,1.28-1.23,2.19-1.62,1.09-.46,1.05-1.22.45-2.2-.29-.47-.46-.59-1.5-.21-.63-4.43,1.7-8.41,4.91-11.77.08-1.38.52-.19.97.31-.33-.37.36,5.5-2.89,5.86.8.76,1.51.02,1.89.59-.81-1-1.53,4.67-.3,3.93.22-.13.35-.79.93-.41-.46,1.21-2.08,1.85-1.63,3.42-.11,1.15-.08,1.59,1.05.53,3.09,1.76,2.64-.3,4.09-.15.62.06.99,1.13,1.53.82.29-.17.68-.61.93-.91.41-.49-.52-.96-.57-1.25.89-.37,1.1-.9,1.53-1.49.82,1.22,5.01,8.81,4.11,8.47.24.09.72-.31.91-.1Z"/>
    <path class="cls-6" d="M190.23,100.42c-1.35,1.08-3.98,1.01-4.62,3.07,2.12-1.15,3.56-1.4,5.26-1.4.14.85-.24,1.86.35,2.58,3.44-1.04,6.61-1.29,9.1.49-1.82,1.22-3.43,3.11-5.35,4.71,2.5,2.87,5.73,2.27,9.4,3.37-12.32,7.35-20.01,6.88-31.87-.53,2.79-2.05,5.46-2.95,6.07-5.68,1.49-6.57-.44-1.88-.03-4.64.34-2.25-.73-4.75-2.7-5.46.72.08,1.62-.17,2.39.12,2.2.8,1.21,7.61,1.57,8.69,1.89-2.87,1.98-6.19.65-8.84,1.13-.01,1.37,1.1,1.87,2.49,4.47-2.91,7.87-7.02,11.39-11.19,2.59-3.08,4.55-6.5,7.91-8.54,2.12,8.72-8.15,16.13-11.38,20.75Z"/>
    <path class="cls-58" d="M180.3,19.94c-1.61,4.68-1.13,10.06,1.8,14.93-1.58,1.08-2.6,1.86-3.91,2.39-2.31-10.46-1.69-22.65,6.29-30.45,3.87-3.78,10.82.63,12.24,4.51,2.01,5.49,2.05,10.32.19,15.7l-12.57,5.55c-3.05-3.6-3.06-7.69-4.04-12.62Z"/>
    <path class="cls-24" d="M400.71,324.95c1.45-1.32,5.91-5.07,5.47-6.82,1.09-.66,1.17-2.59,1.8-3.61,0-.14.07-.47,0-.6.93-3.88.76-12.61.27-17.01l-.78-7.06-3.7-21.64c-1.05-6.11-4.69-23.61-4.81-29.47,0-.18.08-.45,0-.6-.9-1.77-.67-3.86-.86-5.76l-.66-6.47c-1.54-15.11-1.87-29.67-1.18-45.3.58-13.23,2.83-25.73,5.71-38.09,3.5-15.02,7.97-29.73,15.01-43.86.49-.98.88-1.59.63-2.45v-.76c-.02-.52.9-.26,1.08-.55,2.06-3.33,3.42-7.18,5.65-10.12-12.05,24.31-22.64,51.85-25.67,80.03l-.56,5.25c-1.35,12.56-1.19,30.63-.69,43.73.1,2.56.55,5.22.72,7.64l.52,7.34c.15,2.16.44,4.58.77,6.94l1.95,13.92,7.29,41.97.8,8.24c.88,9.15-.17,22.55-8.75,25.1Z"/>
    <path class="cls-57" d="M192.67,305.5c-10.13.56-19.54-2.56-28.22,3.78-.85.62-2.02.58-2.59.77,3.92-5.01,9.83-8.35,15.77-10.44,1.07,2.77,15.14-7.67,14.9-.67.79.2,1.29-.76,1.61-.62.69.3.88.87.96,1.33.09.54-.48,1.38-1.26,1.93.47.51,1.54.3,1.62-.21l.4-2.59c.75.89,1.46,1.41,2.86,1.4-.21.75-.61.45-.95.51-.68.12.1.65.47,1.34-4.7,4.63-5.61.39-5.58,3.47Z"/>
    <path class="cls-53" d="M407.98,313.92c.07.13,0,.46,0,.6-1.69-.2-1.6,2.4-1.8,3.61.44,1.75-4.02,5.49-5.47,6.82-6.08,1.81-4.27-14.45-5.36-18.24.94-4.1.33-7.93-.48-12.9,3.01,7.33,5.8,14.1,10.23,20.64.93-.39,1.43-1.03,2.03-1.77.29.83-.01,1.44.84,1.25Z"/>
    <path class="cls-51" d="M97.05,100.42c-.41,1.35.69,2.21,1.33,3.63,9.44,20.7,16.91,42.15,21.52,64.33,1.12,5.37,6.01,26.5,6.01,31.27v.6c1.01.89.45,2.27.62,3.61l.87,6.94.63,6.51c.5,5.15,1,14.03.89,19.02-.23-.03-.87.14-1.1-.12-.48-4.55.4-9.09-.39-13.49-.53-2.93-.19-5.53-.55-8.64-3.61-31.81-9.7-63.11-21.84-92.16l-3.73-8.93-7.41-16.65c-.15-.33-.75-.64-.49-1.01.13-.19.27-.42.63-.34.74,1.52,1.94,4.29,3.01,5.41Z"/>
    <path class="cls-37" d="M198.69,120.27c.07.57.16,1-.55,1.19-7.1,1.94-14.31,1.78-20.93-.73s-9.19-5.54-14.92-10.51c-.06,1.64,1.1,2.83,2.19,4.12,9.18,10.88,24.66,12.92,38.76,11.7,3.24-.28,5.82-2.2,8.63-3.18,8.27-2.87,19.99.28,31.85-6.43.29-.16.93.19,1.01-.38.04-.26.75.05.87.17-7.46,4.03-15.54,4.92-24.45,6.01l-5.12.63c-.93.11-3.03.14-3.89.65-5.76,3.39-12.96,4.53-19.68,3.77-14.07-1.59-26.18-5.23-32.91-19.1,1.08-.65,1.15-1.77,1.24-2.93,1.88,3.48,3.61,6.09,6.93,8.77,6.74,5.42,15.15,9,23.88,7.83,2.56-.34,4.84-1.03,7.09-1.58Z"/>
    <path class="cls-31" d="M296.87,317.16c10.85,11.33,18.35,19.95,26.37,33.38-4.09-3.64-7.76-7.29-12.11-10.18.05-.35-.16-.75-.54-1.6,1.68-.45,4.7,5.12,5.59,2.91-3.24-4.97-6.92-10.07-11.19-13.69.61-.89.12-1.46-.4-.93l-5.3-5.48c-.37-.38-.47-.92-.73-1.31-.63-.93-1.15.55-1.69.51-2.43-.22-3.66,1.76-5.42,2.37-1.57.55-.95,2.33-1.58,3.57-.53,1.03-2.51,2.03-3.57,2.08-1.35.07-.79-1.36-.72-2.04.12-1.13,1.7-.96,2.26-1.83.5-.78-1.33-.71-1.32-1.01.06-1.34,7.01-3.14,8.19-6.04.38-.94,1.46-.91,2.15-.7Z"/>
    <path class="cls-60" d="M209.49,244.82c3.41,6.1,7.53,11.56,11.99,16.95-4.45-3.17-8.99-5.3-12.8-10.43-2.79-3.75-7.02-7.65-10.76-10.35-.09-1.44.53-.51,1.01-.55,1.04-.1.77.98,1.64,1.42,2.14,1.09,4.21-1.72,5.21-3.12.85,2.29,2.59,4.08,3.71,6.07Z"/>
    <path class="cls-59" d="M311.15,300.52c.46.87,1.55,1.02,2.52,1.67-1.32.44-2.83-.32-4.38-.88-12.86-4.61-25.79-8.11-39.09-9.6-.88-1.39,10.39-1.26,11.39-.81.04-1.32.81-1.31.68.12.56-.6,13.14,2.61,12.78,2.46l13.71,5.95c.65.28,1.48-.62,1.64-.31l.74,1.39Z"/>
    <path class="cls-55" d="M208.91,242.96c-3.99-9.43-5.82-23.25-5.12-34.72l.61-9.98.58-11.99c.15-3.11.11-6.52-.05-9.61l-.46-9.27-1.29-8.87-.88-3.35c1.53-2.69,2.83,11.32,2.92,12.03l.47,3.88c.85,6.91.32,14.14-.09,21.14l-.59,10.12c-.93,15.87-.55,25.2,4.11,39.29.1.3.62.72.43,1.01-.13.2-.28.43-.64.35Z"/>
    <path class="cls-34" d="M200.32,105.16c-2.5-1.78-5.66-1.54-9.1-.49-.59-.72-.21-1.73-.35-2.58,5.86-.02,9.9-3.08,13.44.7-1.49,1.36-2.85,1.61-3.98,2.37Z"/>
    <path class="cls-3" d="M334.6,116.81c-9.85,4.77-21.91,8.46-34.28,7.67-1.27-2.49,6.34-.63,6.01-.6,9.38-.89,18.22-3.43,26.64-6.93.62-.26,1.14-.53,1.64-.14Z"/>
    <path class="cls-19" d="M249.2,119.56c0,.85-.93,1.06-1.6,1.45-7.27,4.25-15.06,6.48-23.7,6.59-2.38.03-5.29,1.48-7.18-.12l4.51-.3c13.88-.93,16.39-2.1,27.97-7.62Z"/>
    <path class="cls-41" d="M141.55,274.83c-1.2-.26-.54-1.74-.24-2.63,2.01-5.91,2.83-12.24,6.25-17.22-1.96,6.69-4.52,12.74-6.01,19.85Z"/>
    <path class="cls-39" d="M165.91,65.88c.24-1.27.56-3.33,2.21-3.77.92-.24,1.26,1.86,1.09,2.57-.26,1.11-1.39,2.05-3.3,1.2Z"/>
    <path class="cls-11" d="M362.42,100.46c.66-1.59,2.01-2.58,3.49-3.7-.35,1.83-1.55,2.95-3.49,3.7Z"/>
    <path class="cls-50" d="M359.24,102.76c.38-.81,1.02-1.21,1.69-1.79.39,1.03,0,1.89-1.69,1.79Z"/>
    <path class="cls-9" d="M276.75,68.18c.48-.48,1.25-.21,1.27.03.02.27-.57.71-.85.91-.5.36-1.23-.12-.42-.94Z"/>
    <path class="cls-33" d="M81.41,72.76c-.32.08-.51-.13-.62-.32-.13-.25-.24-.66-.06-.88.36-.12.52.19.97.56.33.27.44.63-.29.64Z"/>
    <path class="cls-21" d="M229.36,170.79c.77.33,1.06,1.37,1.29,2.39-1.81-.16-.91-1.66-1.29-2.39Z"/>
    <g>
      <path class="cls-29" d="M287.69,298.89c-.12,2.02-2.05-1.36-4.4-.55-1.51.52-3.15,6.34-5.74,4.32,1.29-3.49,3.99-3.34,2.62-5.64-.71-1.2-6.5-1.39-8.1-2.3-1.9-1.09-4.35-1.53-6-1.02-.32.78-1.07,2.01.26,1.07.43.26.49,1.32.76,1.35s.72-.45,1.52-.18c.33.11.52,1.16.99,1.25,1.12.21,2.06-1.51,2.79-.94.53.41,1.48,1.03,1.39,1.54l-.12.7c-.03.17.37.49.51.39s.43-.75.96-.48c-.16,1.03-1.12,1.65-.49,2.95.74-.68,1.2-1.35,2.2-1.92.1,3.09-3.56,3.32-3.31,4.92.35,2.31,2.35-2.99,4.02-1.69-.46,1.25-2.63,1.48-2.28,3.46.99.1,1.79-.69,2.82-1.25.03,1.79-1.73,2.22-2.41,3.68-.14,1.55.69,1.39,1.64,0,1.43,1.17-4.27,4.8-3.99,5.64.18.54.76,1.26,1.09.36.9-2.47,3.63-3.54,5.24-5.49-.06.86.88,1.35.82,1.79-.23,1.76-2.07,2.3-2.82,3.65-.07.44.33.46.51.28.31-.31.54-.69.79-.8.68,1.22,1.05,1.63.55,2.1-.75.72-1.15,1.15-1.86.15-.88,1.78.42,2.89-.85,4.89,4.09,3.61,7.69,7.71,11.3,12.26.55.69.98,1.55,1.91,1.62,3.41.28-.74-1.74,5.04-3.98l5.3-2.05c.06-.38-.26-.83-.33-.97-.12-.25.06-.41.29-.54.65-.38.41.64.66.81,1.5,1.04,2.45-.53,3.62-1.24l-.67,2.48c-.3,1.09-3.5,2.12-5.81,3.42-1.54.87-2.32,3.24-4.38,3.08-1.08-.09-1.91.53-2.61,1.2l4.15,6.65c2.91,4.66,9.09,13.14,7.09,16.75-.38.68-1.16,2.1-2.14.95-.38-.73-.33-1.34-.64-1.35-.83-.03-1.32-.53-1.83-.07-.98.9-2.77-1.8-3.83-1.47-1.33.41-1.73,2.32-3.38,2.66,1.33,2.73,2.38,5.95,3.98,8.26,1.15,1.67,2.92,3.1,3.03,5.08.01.21-.52,1.05,0,1.15.25.05.58-1.03,1.42-.04l-2.5,3.5c.77.14,1.59.6,2.61.93.24-.92.42-1.54.88-1.58.96-.08.92.84,1.15,1.29l3.8,7.36c-2.64,5.84-5.25,4.59-7,9.41-.78-1.52-.8-3.64-2.69-3.53-1.36.08-1.21,2.81-1.54,3.91-.55,1.86-.01,3.72-3,5.4,2.44,1.57,5.68-4.42,7.93-5.46.52,1.58.68,2.33,1.01,2.95.39.72,2.01,1.49,2.53.61,1.63-2.74,5.92-9.75,9.27-6.58-3.01,3.12-5.93,5.91-9.43,8.86-.88.74.92,2.79,1.73,4.09.79.62,4.72-7.22,4.33-6.25.18-.45-1.01-.45-.93-.63.14-.3.08-.45.24-.57.25-.2,1.15-.01,1.18-.21.09-.77.19-.91.42-1.19,1.42-1.74.86,1.61,2.65-.32.19-.2,3.12.92,4.84-1.45.61,2.28-5.67,4.46-6.01,6.06-.38.49-.92.61-.91.9.03.66.46.84.71.99,2.99,1.87-1.22-1.17,3.81-1.93,1.73-.5-3.95,3.49-3.18,2.63-.08.09-.32,4.69-2.51,5.8-.67.34-1.53-.63-1.91-.39-.85.57-.05,1.95.41,2.41.68.7,2.04.59,3.04-.29.48-.42.62-.9.9-.99.38-.12,1.71.28,1.69.78-.03.68-.1.91.64,1.32.68.38.92.59,1.61-.37,2.06-2.86,5.84-.63,5.93-.39.56,1.38-2.03,2.63-3.26,2.78-.67.08-.81-1.29-1.26-1.17-1.51.54-1.63,2.26-.71,3.11-1.46,1.12-.68,2.16.34.9.75-.09.65.86,1.17.86.37,0,.75-.46,1.13-.77.3,1.54,1.11,1.49.95.12.61-1.08,1.71-1.67,2.52-2.67,2.1,2.64-1.99,5.53-1.74,5.6l-1.26-.37c-1.43-.42-1.2,2.01-1.97,2.52-.97.64-2.06.73-2.1,1.71-.03.63,2.27,3.18,2,3.01.21.14-.51.66.02,1.08.39.3,1.22.47,1.2.74l-.05,1.09c-.02.45-.02,1.03.37,1.03.55,0,.08-.52.17-.68s1.11-.06.47-.5c.39,1.45.84,1.45,1.13,1.36.35-.11,1.11-.32.92-.51-.4-.4-1.26-.24-1.26-.8.37-.82.3-.88.26-1.17-.06-.51-.61-.97-1.45-.92,1.48-1.18,2.46-2.38,3.68-3.96,1.12,2.31,7.63-4.86,7.65-6.31,1.18.2,1.09,1.08,1.48.97.8-.22,1.16-1.26,1.36-1.97.64-2.32,3.35-2.82,4.25-4.65,2.53,3.57,4.03,3.05,7.64,6.19l6,5.21c.64-1.14-3.34-7.38-.91-6.29,1.25,3.04,2.73,6.12,2.31,9.77-4.8-5.13-9.46-9.94-15.32-12.95,7.32,10.32,14.44,19.83,18.58,30.92-.19-.21-.67.19-.91.1.9.34-3.28-7.25-4.11-8.47-.43.6-.64,1.13-1.53,1.49.05.29.98.76.57,1.25-.25.3-.64.75-.93.91-.54.31-.91-.76-1.53-.82-1.46-.14-1,1.92-4.09.15-1.13,1.06-1.16.62-1.05-.53-.45-1.57,1.17-2.21,1.63-3.42-.58-.38-.71.28-.93.41-1.23.73-.51-4.94.3-3.93-.38-.57-1.08.17-1.89-.59,3.24-.36,2.56-6.22,2.89-5.86-.45-.5-.89-1.69-.97-.31-3.21,3.36-5.54,7.34-4.91,11.77,1.04-.38,1.21-.26,1.5.21.61.98.65,1.73-.45,2.2-.9.38-1.76.73-2.19,1.62-.32.66-.59,1.76.25,2.66.62-.3,1.06-1.04,1.94-.47.43.28,1.29.32,1.64,1.47-3.87.84-.53.64-4.77,2.47-.7.3-.03.7.11,1.46.2,1.05-1.23,1.68-1.88,1.49s-2.22-.6-1.98-1.25c.33-.89,1.35-.97,1-2.2-1.39,1.04-2.7.46-4.5,1.19.35,1.89-.19,4.34-1.85,4.56l-4.21.57c.45,1,.86.96,1.31.99.7.05-.18.67-.15.97,1.15,2.54,5.87,7.76,5.6,9.54s-2.5,1.56-4.91,5.27c-.37.57-1.35,1.01-1.6,1.85-.19.63-.55,1.73.71,2.41.72-.82,2.63-1.91,3.3-2.94,1.76-5.33,1.93-3.43,6.87-8.41-.71-1.3-1.42-.76-2.14-1.16,2.32-2.05,2.48-4.01,3.73-1.5,1.22-.93,2-2.77,3.96-3.04.74.78-.88,2.33.55,2.06,1.12.72,1.26,3.59.46,4.63-.54.41-2.37.21-2.76,1.41-.22.68.53,1.8.94,3,.22.63-2.24,1.6-.42,2.3,5.34-7.17,2.12.81,6.25-4.38.22-.28.79-.62.69-.8-.08-.14-.63-.3-.94-.45-.83-.4-1.41-1.16-1.07-1.75.2-.34.28-.37.55-.66-.88-.85-.76-1.25.2-1.52.63-1.09.81-.82,1.19.41,1.83-1.14,2.58-3.19,5.15-3.95-1.04-1.31-1.66-2.55-3.08-3.81-2.1,2.28-4.89,3.13-7.72,3.52-2.4-2.57,3.52-1.32,4.7-5.33.09-.3,1.37-.53,1.01-1.02-2.73-3.84-.78.29-2.63-3.63.33-.42.87-.43,1.53.14,11.25,14.11,20.05,29.16,12.66,48.27-1.86,4.8-5.72,7.94-10.59,8.69-10.08,1.56-19.89-.66-29.03-5.77-8.43-4.71-14.99-11.56-20.89-19.12-1.8-2.31-3.27-4.29-5.39-6.29,2.44,8.25,6.86,12.59,9.8,19-17.69-13.43-29.03-31.53-34.26-52.5-1.02,6.89.22,13.64,1.99,20.57l-2.8-3.84c-9.53-13.07-13.58-29-15.15-44.89,0,.06.61,0,.68-.14-.58-6.52.78-13.03-.68-19.1-.07-.29.29-.74-.3-1.22-2.26,5.65-3.37,11.52-4.75,17.58-1.29-2.6-1.53-4.99-1.91-7.53-2.74-18.64-1.65-37.43,1.49-55.75-3.26,5.81-4.95,11.27-6.96,17.59-1.41-20.95,3.36-42.16,8.39-62.08.04.76.91,2-.18,2.87,1.82.38,2.86-1.21,3.53-2.51.65.05.74.88,1.12.74,4.95-8.26,2.76,2.72,6.14-5.69-.34-.3-1.03.63-1.42.25-.22-.21-.46-.55-1.03-.95-1.7-1.2-3.37,2.15-4.12.62,2.58-1.7,5.71-2.18,9.05-2.91,1.99-.43,1.83-4.18,12.63-.86l12.36,3.8c1.43.44,2.58,1.32,3.85,1.65Z"/>
      <path class="cls-32" d="M245.78,301.89c-.05-.99.44-3.17,1.26-3.5s1.81-.66,2.77-1.18c.76,1.52,2.42-1.83,4.12-.62.57.4.81.74,1.03.95.39.38,1.08-.55,1.42-.25-3.38,8.41-1.19-2.56-6.14,5.69-.37.14-.46-.68-1.12-.74-.67,1.31-1.71,2.9-3.53,2.51,1.09-.86.22-2.11.18-2.87Z"/>
      <path class="cls-46" d="M249.81,412.55c-.18-1.84.16-3.61-.28-5.68-.87-4.11-.09-9.84.28-13.57,1.46,6.07.1,12.58.68,19.1-.07.14-.68.2-.68.14Z"/>
      <path class="cls-48" d="M332.83,481.85c-3.31-.61,4.79-2.1,3.72-2.75.82.5,1.4.37,1.21.91-.4,1.1-.53,1.83-1.72,1.63-.47-.08-1.31.6-1.24.82l.53,1.64c-.18-.57.65,4.57-1.16,5.1.86.57,1.83.53,2.51-.07-.04.04,2.73-4.29,1.79-5.24.59-.71,2.64-.52,3.16-1.65.7,2.41-.29,3.62-2.46,5.35,5.35,1.12,4.32-4.26,8.18-2.72-.44,1.25-1.75.93-2.2,1.58.37-.53-.74,2.4.6,2.7,1.1.24,1.08-1.52,1.83-1.4,3.89.63-6.91,5.76-.62,3.63.28-.1.52-1.11.88-1.07,1.54.13,2.85-.98,3.58-2.01.52-.73.73-2.58-.45-3.01-1.78-.64.15-2.12.2-3.23.3-6.35,4.11-1.7,5.08-7.02,1.75.46.7,2.08.91,3.09.51,2.45,1.15,4.83,0,7.11-.76,1.51.37,3.39-.14,4.96l-2.13,6.54c-1.12,3.43-4.8,5.55-7.49,7.04-.62-.52-.87-.95-1.08-1.03-.24-.1-.71.56-1.06.57-2.54.07-6.83-5.45-6.84-5.64-.03-.61,1.11-.83,1.58-1.46.89-1.21-.42-2.45.16-3.47.25-.44,1.25-.55,1.11-1.08-1.08-4.11-1.24,1.99-3.21-2.75-.9.24-1.35,3.79-2.41,6.05l-7.55-10.28c3.12-2.16,2.42-3.1,4.73-2.82Z"/>
      <path class="cls-25" d="M322.97,449.07c-.53-.09-.89.68-1.32.75-.67.1-1.98-.2-1.85-.9.36-1.96,1.9-2.54,3.2-3.47-.5.35,3.78-3.64,3.79-3.74.02-.24-.25-.56-.39-.72-.42-.47-.93.19-1.23.2-1.38-3.98.86-5.87-2.11-3.4-.22.19-.71-.95-1.07-.32-.13.23-.45.48-.91.88s1.02.63.85,1.02c-.68,1.63-2.53,0-2.92-.74-1.14-2.19,6.89-1.44,7.98-8.06.13-.79,1.26-.36,1.54-.69,1.35-1.56,2.2-3.32,3.63-4.62.87-.8,2.78.35,3.56-.68s.82-2.85,2.21-2.86c1.78-.01,4.17,2.02,3.32,3.13-1.1,1.44-2.13,3.02-3.41,4.05-.52-.37-.66-.92-.84-1.08-.27-.25-1.03.3-1.18.14l-.92-.98c.18.19-2.32,1.33-3.54,4.82-.4,1.15-2.47,1.42-2.04,3.17.66,2.71-4.92,2.65-2.18,4.52.41.28-.49.81-.15,1.49,1.96-1.68,3.75-2.83,6.67-1.84l-3,2.76c-1.49,1.37-4.42,1.45-5.42,4.03-.39,1-.22,3.45-2.29,3.12Z"/>
      <path class="cls-64" d="M338.85,458.27c2.83-.39,5.61-1.24,7.72-3.52,1.42,1.26,2.04,2.51,3.08,3.81-2.57.76-3.33,2.81-5.15,3.95-.38-1.23-.56-1.5-1.19-.41-.96.26-1.08.67-.2,1.52-.27.29-.35.32-.55.66-.34.59.24,1.35,1.07,1.75.31.15.86.31.94.45.1.18-.46.52-.69.8-4.12,5.19-.91-2.78-6.25,4.38-1.83-.71.63-1.67.42-2.3-.41-1.19-1.17-2.31-.94-3,.39-1.2,2.21-1,2.76-1.41.8-1.04.66-3.91-.46-4.63-1.43.26.19-1.28-.55-2.06Z"/>
      <path class="cls-14" d="M277.55,302.66c-1.67-1.3-3.66,4-4.02,1.69-.25-1.6,3.42-1.83,3.31-4.92-1,.57-1.45,1.24-2.2,1.92-.63-1.3.33-1.92.49-2.95-.54-.26-.83.38-.96.48s-.54-.22-.51-.39l.12-.7c.09-.51-.86-1.13-1.39-1.54-.73-.57-1.67,1.15-2.79.94-.47-.09-.66-1.14-.99-1.25-.8-.27-1.25.21-1.52.18s-.33-1.1-.76-1.35c-1.33.94-.59-.29-.26-1.07,1.65-.51,4.09-.07,6,1.02,1.6.91,7.39,1.11,8.1,2.3,1.37,2.3-1.33,2.15-2.62,5.64Z"/>
      <path class="cls-28" d="M257.63,309.04c-.72.31-.63-.98-.64-1.3-.02-.41-1.57-.32-1.72-1.08-.42-2.19,2.04-4.69,3.82-6.35.83-.78,3.22.28,3.8-1.57.18-.58.74-1.51,1.27-1.63.61-.13,1.45-.16,1.88.31l-6.74,6.28c-.5.39.1.61,1.22.76l-2.9,4.59Z"/>
    </g>
    <path class="cls-17" d="M180.44,96.91c1.33,2.65,1.24,5.96-.65,8.84-.36-1.08.62-7.89-1.57-8.69-.77-.28-1.67-.04-2.39-.12-1.11-.12-2.16-.14-3.6-.14-.06-.66.55-.58.71-.71,1.51.41,2.99-.08,4.7-.45,1.28-.28,1.92,1.29,2.81,1.28Z"/>
    <path class="cls-56" d="M401.96,142.52c-2.88,12.36-5.13,24.86-5.71,38.09-.69,15.64-.36,30.19,1.18,45.3l.66,6.47c.19,1.9-.04,3.99.86,5.76-1.5,2.54-1.63-7.71-2.08-9.37-.67-2.52-.07-4.85-.55-7.34-1.45-7.56-1.01-35.1-.77-44.34.05-2.01.46-4.2.68-6.11l1.01-8.63c.12-1.02,3.16-22.47,4.71-19.83Z"/>
    <path class="cls-7" d="M403.77,268.22c-.51.07-1.21.05-1.2-.33,0-.19-3.2-19.96-3.68-23.17-.3-2.02-1.36-4.51.07-5.97.12,5.86,3.77,23.36,4.81,29.47Z"/>
    <g>
      <path class="cls-40" d="M197.92,240.99c3.74,2.7,7.97,6.6,10.76,10.35,3.8,5.13,8.35,7.26,12.8,10.43,6.19,4.41,14.91,15.99,28.89,20.02.56.16,1.01,1.89,2.14.37.7-.95,1.46,1.07,2.05,1.03.71-.05,2.29-1.41,2.46,0,.12,1,1.03.93,1.33.71l1.29-.94c9.28-6.8,30.13-4.99,39.36-17.12,0,.52,1.25.37,1.27.87.02.53-1.45.68-1.68,1.66-.58,2.52,5.77-2.33,7.25-4.71.9-1.44,2.04-1.68,3.09-2.55,8.7-7.22,20.53-8.04,30.1-1.01,4.6,3.38,9.01,7.28,12.52,11.73-2.73,1-2.43-3.53-5.18-3.6-.81-.02-1.34,1.26-1.86,2.03,1-.09,2.71.33,2.79,1.48-1.66,1.17-2.77,2.25-2.63,4.38.04.52-1.76.89-1.53,1.41l1.02,2.3c.39.89.81-.24,1.04-.13.33.16-.06,1.5.6,1.1,1.1-1.28,2.08-.46,1.02.68-.68.43-1.17.48-1.69.62-.61.17.72.9-.05,1.43-.59.41-.91.9-1.08,1.35-.28.72.64,1.26.89,1.88-5.78,5.78-.34-1.83-4.5,4.36-3.28,4.9-9.38,9.16-13.89,14.4.37,1.19,5.59,2.46,4.52,3.14-6.51-1.95-13.82-6.07-19.85-8.14l-.74-1.39c-.16-.31-1,.59-1.64.31l-13.71-5.95c.36.16-12.22-3.06-12.78-2.46.13-1.43-.64-1.45-.68-.12-1-.45-12.27-.58-11.39.81-2.43-.27-5.08.33-7.6-.28-2.81-.68-5.39-1.22-7.99-1.65-5.74-.94-11.78-.35-18.03-.56-7.01-.24-13.53.53-20.55,1.19-13.64,1.29-26.28,4.8-38.4,9.19-5.94,2.09-11.85,5.42-15.77,10.44-1.75,1.46-4.42,2.52-6.48,3.43-.6-1.21,3.6-.9,5.88-3.97-2.98-1.62-3.53-4.45-4.17-7.1.75-.45.7-1.3.7-2.29v-6.07c-.01-.49-.32-.65-.58-.61,1.16-13.94,6.56-27.28,14.98-39.06,3.02-4.23,5.58-7.73,9.41-11.14,4.13-3.68,11.39-5.8,16.32-2.24Z"/>
      <path class="cls-10" d="M157.1,302.41c-.74-3.06-.14-5.89.12-8.98.27-.03.57.12.57.61v6.07c.01,1,.06,1.84-.69,2.29Z"/>
      <circle class="cls-23" cx="337.61" cy="263.4" r=".67"/>
    </g>
    <path class="cls-31" d="M314.11,402.33c.77-.22.39-2.1,1.47-2.24,1.48-.19.61,1.01.42,1.56-.27.78-1.05.56-1.89.68Z"/>
    <path class="cls-4" d="M407.98,314.52c-.64,1.02-.72,2.95-1.8,3.61.2-1.21.11-3.8,1.8-3.61Z"/>
    <g>
      <path class="cls-12" d="M172.94,96.08c-.16.14-.77.05-.71.71,1.44,0,2.49.02,3.6.14,1.97.7,3.04,3.21,2.7,5.46-.41,2.76,1.52-1.94.03,4.64-4.96,0-6-2.22-10.97,1.43-.74-1.42-1.44-2.21-2.03-3.2-3.34-5.57,2.77-6.8,3.11-8.87.71-.16,1.61-.42,1.74-1.38,0-.92,1.28-.71,1.74-.23.3.31.99.77.77,1.3Z"/>
      <path class="cls-52" d="M170.42,95.01c-.14.95-1.03,1.22-1.74,1.38.08-.5.06-.73.52-1.11.38-.31.73-.34,1.22-.27Z"/>
      <path class="cls-54" d="M173.56,99.88c.82-.31,1.6.16,1.65.76.04.46-.33,1.25-.97,1.68-.38.26-.99-.43-1.53-.78-.59-.38.02-1.34.86-1.65Z"/>
    </g>
    <g>
      <path class="cls-61" d="M293.71,70.95c-.07.53-.04,1.25.32,1.22l1.49-.13c-5.77.51,17.8,2.37,29.2,1.6l7.9-.54,9.21-1.03c.64-.07,1.47.36,1.79-.19.12-.22-.02-.64.01-.93,5.05-.32,10.05-.99,15.04-1.8-.12.57.56.78,1.22.67l18.63-3.15,15.02-2.95c.55-.11,1.06.18,1.21-.27.08-.24-.02-.59,0-.92l7.63-1.45c11.16-2.13,10.43-15.85,21.07-23.96.34,1.47.14,2.91-.39,3.84-3.02,5.36-5.52,10.54-8.22,16.1,2.62.88,4.52-.67,5.8-2.88,2.72-4.67,7.04-7.64,11.35-10.81,6.17-4.55,13.47-7.17,20.98-5.16-3.5,3.06-7.47,3.37-11.1,4.82-5.16,2.06-9.82,4.95-12.61,9.65.94.8,1.84.21,2.77-.22,7.98-3.69,16.26-4.6,24.67-2.03,4.1,1.26,7.79,3.17,10.41,6.57-5.19,1-8.02-2.13-13.43-2.44-6.35-.36-12.37.78-18.43,2.99,1.28,1.71,2.74-1.17,3.1.83,6.49.1,23.99,2.58,26.65,10.78-3.04.11-5.41-1.6-8.28-1.93l-10.88-1.28c-.87-.1-9.15-3.19-11.18-.12-.59.88,4.61.95,4.67,3.76-12.26,7.7-19.12,2.18-31.34,5.57.08-.72-.54-.54-.91-.63-.66-.17-.85.44-1.45.6l-7.89,2c-5.76,1.46-11.61,1.63-17.43,3.54-8.1,2.65-15.77,5.64-23.56,8.88-18.22,7.56-38.04,15.11-57.76,17.19-10.62,1.12-21.06.01-31.73-1.5-.8-.11-.6-.8-.62-1.26,3.72-5.04,6.71-10.63,7.01-17.16-1.27.26-1.76,1.28-2.56,2.27-.57-1.2.34-4.85-1.01-4.5-.32.08-.36.3-.53.44-4.54,4.04-8.5,8.51-12.46,13.52-5.54,6.99-12.68,13.24-21.71,15.37-8.21,1.94-16.31-.28-23.88-2.25,2.36-2.14-9.33-2.38-11.16-2.8,6.62-7.26,16.21-4.94,16.08-4.84.28-.2.77-.54.9-1.08-12.31-1.45-13.69-6.01-27.07-2.53,3.23-4.62,13.5-12.03,11.38-20.75-3.35,2.04-5.31,5.47-7.91,8.54-3.52,4.17-6.92,8.28-11.39,11.19-.5-1.39-.73-2.51-1.87-2.49-.89.01-1.52-1.55-2.81-1.28-1.72.37-3.19.86-4.7.45.22-.53-.47-1-.77-1.3-.46-.48-1.74-.69-1.74.23-.49-.07-.84-.04-1.22.27-.47.38-.44.61-.52,1.11-2.12.48-3.91,1.92-5.92,3.16-2.21-8.81,7.4-18.4,2.21-17.3l4.83-6.46c4.49-6.01,5.87-13.92,1.93-20.89,7.31-12.78,25.45-24.24,40.13-25.9,6.76-.76,13.2.27,19.44,1.92,5.53,1.46,10.23,4.5,13.51,9.46.81,1.23,1.28,3.04,2.95,3.32.7-2.88-.13-6.73,1.71-9.2,6.61-8.88,19.31-17.45,30.96-16.41,3.25.29,5.29,1.71,6.42,4.6,2.57,6.6,2.32,13.65.46,20.61-3.17,11.83-9.39,15.74-16.88,24.61,1.49,1.49,3.31,3.31,5.16,2.83,1.66-.43,3.04-2.57,4.9-2.17,4.5.97,9.09,1.22,13.22,2.37Z"/>
      <path class="cls-18" d="M343.63,70.95c-.04.3.11.72-.01.93-.32.56-1.14.12-1.79.19l-9.21,1.03-7.9.54c-11.4.77-34.97-1.09-29.2-1.6l-1.49.13c-.35.03-.38-.69-.32-1.22,6.46,1.8,18.89,2.56,26.32,2.13l10.14-.58c3.14-.18,12.15-1.46,13.45-1.55Z"/>
      <path class="cls-43" d="M358.66,69.15l15.04-2.47c7.26-1.19,14.15-2.84,21.04-4.15-.02.33.08.68,0,.92-.15.44-.66.16-1.21.27l-15.02,2.95-18.63,3.15c-.65.11-1.33-.1-1.22-.67Z"/>
      <path class="cls-36" d="M262.59,66.23c-1.47-.77-2.78-1.22-3.44-2.36.78-.63,1.35-.76,1.68-.95s1.79-6.8-.28-8.72c-2.54-2.37-5.01-5.15-7.09-7.85,3.88-11.63-.45-5.07,5.75-12.29,5.56-6.47,14.85-12.11,23.11-12.98-.41,2.16-2.17,1.96-3.14,2.93-6.01,6.05-9.65,13.49-11.97,21.71-.32,1.12-1.84,1.84-1.2,3.23.35.76,1.09,1.63,2.26,2.05,1.4.49,2.32.66,3.85-.54-2.17,3.8-.55,4.92-2.89,8.91-1.61,2.74-4.02,4.43-6.64,6.88Z"/>
      <path class="cls-16" d="M206.9,63.22c-.5-1.9.95-3.11,1.32-4.91,1.59-6.15,6.99-10.2,13.16-9.98.33.01.65.65.79.81.2.24-.19,1.05-.69,1.21-6.62,2.07-11.17,6.46-14.58,12.88Z"/>
      <path class="cls-47" d="M430.19,60.21c-2.06,3.62-5.64,4.44-9.06,3.79,2.73-2.28,5.62-3.35,9.06-3.79Z"/>
      <g>
        <path class="cls-49" d="M232.94,83.92c-3.99,5.62-10.7,6.66-16.33,2.6-7.2-5.19-7.13-16.61-.02-22.28,4.48-3.57,10.47-3.05,14.53.8,5.22,4.94,6.06,12.92,1.81,18.88Z"/>
        <path class="cls-26" d="M221.81,74.01c-1.77.04-2.25-1.65-2.15-2.68.07-.79.61-2.07,1.94-2.62,1.47-.61,2.72.93,3,1.92.42,1.51-.64,3.33-2.79,3.38Z"/>
      </g>
    </g>
    <g>
      <path class="cls-38" d="M131.41,284.4c.15.21,0,.52-.19.65-4.51-5.87-3.7-13.63-3.19-22.02l.58-9.48c.35-5.73.19-11.53.31-17.21.11-5-.39-13.87-.89-19.02l-.63-6.51-.87-6.94c-.17-1.34.39-2.72-.62-3.61.52-.07,1.26-.04,1.22.32l-.15,1.49c-.21,2.11.78,4.36,1,6.32l.66,5.93.57,7.8c.19,2.57.53,13.79.57,13.94.72,2.65.1,6.02-.03,8.88l-.53,12.23-.59,8.83c-.41,6.1-.53,13.92,2.77,18.4Z"/>
      <path class="cls-20" d="M131.41,284.4c-3.31-4.47-3.18-12.3-2.77-18.4l.59-8.83.53-12.23c.12-2.86.74-6.24.03-8.88-.04-.15-.38-11.38-.57-13.94l-.57-7.8-.66-5.93c-.22-1.96-1.21-4.21-1-6.32l.15-1.49c.04-.35-.7-.38-1.22-.32v-.6c2.26-.77-5.24-31.39-5.08-31.26-.18-.16-.65.03-.94-.02-4.61-22.18-12.08-43.63-21.52-64.33-.65-1.42-1.75-2.28-1.33-3.63.33.34,1.25.98,1.3,1.53.26,2.92,2.41,1.79,3.55,2.64,9.73,7.19,18.25,15.12,25.11,25.42,9.92,14.89,15.34,32.07,18.89,48.35.1.44.83.23,1.15.66.39.51-.77,1.19-.7,1.6,1.6,9.22,1.74,18.52,2.03,27.77-.07-2.19.53,10.82.99,6.67-.07.65-1.31.76-1.61,1.04l-1.16,9.51c-.17,1.36-.94,1.72-.58,3.29.5,2.13-.86,4.91-.88,7.23,1.06.59.68,1.48-.39,1.21-1.42,5.33-1.85,10.65-3.81,16.03-.65,1.78-.36,4.55-1.48,6.19-.23.77.08,2.98-.68,3.17-1.83.45-.31,1.61-.44,2.43-.3,1.93-.6,4.17-1.47,5.57-.63.94-1.26,1.23-1.05,2.68.33,2.28-1.79,4.76-1.97,7.35-.12,1.77-.93,3.09-2.45,3.65Z"/>
      <path class="cls-5" d="M125.92,199.66c0-4.77-4.9-25.9-6.01-31.27.29.05.75-.14.94.02-.16-.13,7.34,30.49,5.08,31.26Z"/>
      <circle class="cls-38" cx="132.01" cy="229.81" r=".59"/>
    </g>
  </g>
</svg>